<?xml version="1.0" encoding="utf-8"?>
<!-- Generator: Adobe Illustrator 24.3.0, SVG Export Plug-In . SVG Version: 6.00 Build 0)  -->
<svg version="1.1" id="Layer_1" xmlns="http://www.w3.org/2000/svg" xmlns:xlink="http://www.w3.org/1999/xlink" x="0px" y="0px"
	 viewBox="0 0 496.1 496.1" style="enable-background:new 0 0 496.1 496.1;" xml:space="preserve">
<style type="text/css">
	.st0{fill:#FFFFFF;}
</style>
<path class="st0" d="M259.4,248L493.8,13.7c3.1-3.1,3.1-8.2,0-11.3c-3.1-3.1-8.2-3.1-11.3,0L248.1,236.7L13.8,2.3
	c-3.2-3.1-8.2-3-11.3,0.2c-3,3.1-3,8,0,11.1L236.8,248L2.4,482.3c-3.2,3.1-3.3,8.1-0.2,11.3s8.1,3.3,11.3,0.2
	c0.1-0.1,0.1-0.1,0.2-0.2l234.3-234.3l234.3,234.3c3.2,3.1,8.2,3,11.3-0.2c3-3.1,3-8,0-11.1L259.4,248z"/>
</svg>
